<svg width="12" height="11" viewBox="0 0 12 11" fill="none" xmlns="http://www.w3.org/2000/svg">
<path d="M4.0802 10.2002V3.2002C4.0802 2.73521 4.0802 2.50272 4.12926 2.31197C4.26241 1.79433 4.65056 1.39001 5.1475 1.25131C5.33062 1.2002 5.55381 1.2002 6.0002 1.2002C6.44658 1.2002 6.66977 1.2002 6.85289 1.25131C7.34983 1.39001 7.73798 1.79433 7.87113 2.31197C7.9202 2.50272 7.9202 2.73521 7.9202 3.2002V10.2002M2.7362 10.2002H9.2642C9.80185 10.2002 10.0707 10.2002 10.276 10.0912C10.4567 9.99533 10.6035 9.84235 10.6956 9.65419C10.8002 9.44027 10.8002 9.16025 10.8002 8.6002V4.8002C10.8002 4.24014 10.8002 3.96012 10.6956 3.7462C10.6035 3.55804 10.4567 3.40506 10.276 3.30919C10.0707 3.2002 9.80185 3.2002 9.2642 3.2002H2.7362C2.19854 3.2002 1.92972 3.2002 1.72436 3.30919C1.54373 3.40506 1.39687 3.55804 1.30483 3.7462C1.2002 3.96012 1.2002 4.24014 1.2002 4.8002V8.6002C1.2002 9.16025 1.2002 9.44027 1.30483 9.65419C1.39687 9.84235 1.54373 9.99533 1.72436 10.0912C1.92972 10.2002 2.19855 10.2002 2.7362 10.2002Z" stroke="#545658" stroke-linecap="round" stroke-linejoin="round"/>
</svg>
