<svg width="12" height="12" viewBox="0 0 12 12" fill="none" xmlns="http://www.w3.org/2000/svg">
<path d="M6.0002 6.0002L10.8002 6.0002M6.0002 1.2002L6.0002 10.8002M3.7602 1.2002H8.2402C9.13628 1.2002 9.58432 1.2002 9.92658 1.37458C10.2276 1.52798 10.4724 1.77275 10.6258 2.07381C10.8002 2.41607 10.8002 2.86411 10.8002 3.7602V8.2402C10.8002 9.13628 10.8002 9.58432 10.6258 9.92658C10.4724 10.2276 10.2276 10.4724 9.92658 10.6258C9.58432 10.8002 9.13628 10.8002 8.2402 10.8002H3.7602C2.86411 10.8002 2.41607 10.8002 2.07381 10.6258C1.77275 10.4724 1.52798 10.2276 1.37458 9.92658C1.2002 9.58432 1.2002 9.13628 1.2002 8.2402V3.7602C1.2002 2.86411 1.2002 2.41607 1.37458 2.07381C1.52798 1.77275 1.77275 1.52798 2.07381 1.37458C2.41607 1.2002 2.86411 1.2002 3.7602 1.2002Z" stroke="#6F35F2" stroke-linecap="round" stroke-linejoin="round"/>
</svg>
