<svg width="12" height="10" viewBox="0 0 12 10" fill="none" xmlns="http://www.w3.org/2000/svg">
<path d="M10.8002 9.1998V8.26647C10.8002 7.39668 10.1883 6.66583 9.3602 6.45861M7.6802 0.935492C8.38383 1.21241 8.8802 1.88308 8.8802 2.66647C8.8802 3.44986 8.38383 4.12054 7.6802 4.39745M8.4002 9.1998C8.4002 8.33005 8.4002 7.89517 8.25404 7.55213C8.05918 7.09474 7.6854 6.73135 7.21495 6.5419C6.86211 6.3998 6.4148 6.3998 5.5202 6.3998H4.0802C3.18559 6.3998 2.73828 6.3998 2.38544 6.5419C1.91499 6.73135 1.54122 7.09474 1.34635 7.55213C1.2002 7.89517 1.2002 8.33005 1.2002 9.1998M6.7202 2.66647C6.7202 3.6974 5.86058 4.53314 4.8002 4.53314C3.73981 4.53314 2.8802 3.6974 2.8802 2.66647C2.8802 1.63554 3.73981 0.799805 4.8002 0.799805C5.86058 0.799805 6.7202 1.63554 6.7202 2.66647Z" stroke="#545658" stroke-linecap="round" stroke-linejoin="round"/>
</svg>
